<?xml version="1.0" standalone="no"?>
<!DOCTYPE svg PUBLIC "-//W3C//DTD SVG 20010904//EN"
 "http://www.w3.org/TR/2001/REC-SVG-20010904/DTD/svg10.dtd">
<svg version="1.0" xmlns="http://www.w3.org/2000/svg"
 width="300.000000pt" height="300.000000pt" viewBox="0 0 300.000000 300.000000"
 preserveAspectRatio="xMidYMid meet">
<metadata>
Created by potrace 1.10, written by Peter Selinger 2001-2011
</metadata>
<g transform="translate(0.000000,300.000000) scale(0.100000,-0.100000)"
fill="#000000" stroke="none">
<path d="M0 1500 l0 -1500 1500 0 1500 0 0 1500 0 1500 -1500 0 -1500 0 0
-1500z m733 1161 c51 -49 184 -141 203 -141 6 0 33 21 60 46 109 104 122 112
245 155 91 31 99 32 259 32 153 0 171 -2 250 -27 106 -35 136 -53 232 -138
l77 -68 63 35 c95 52 175 120 210 177 l32 52 28 -60 c31 -68 58 -183 58 -253
0 -65 -34 -191 -67 -253 -16 -28 -23 -52 -18 -54 6 -3 28 -15 50 -27 l40 -23
-2 -149 c-2 -185 -7 -204 -59 -230 -21 -11 -41 -21 -43 -22 -2 -1 4 -14 14
-29 41 -64 108 -99 170 -92 27 3 32 1 24 -9 -21 -24 -103 -73 -123 -73 -40 0
-46 -12 -31 -55 19 -54 18 -120 -1 -186 l-17 -54 -12 37 c-15 40 -44 88 -54
88 -3 0 -7 -20 -8 -45 -1 -27 -11 -60 -24 -81 l-22 -37 34 -28 c19 -15 56 -40
83 -55 48 -27 49 -27 100 -11 69 22 147 92 183 165 22 46 28 71 28 127 0 38
-4 86 -9 105 l-8 35 39 -50 c84 -104 143 -250 129 -313 l-7 -27 19 24 c18 23
19 22 10 -50 -11 -84 -36 -145 -86 -206 l-33 -42 42 -3 42 -3 -40 -50 c-116
-146 -274 -259 -448 -320 -36 -12 -69 -25 -72 -29 -21 -20 -17 3 9 65 16 39
28 73 25 75 -2 2 -21 -12 -43 -33 -54 -51 -168 -133 -239 -173 -33 -18 -68
-40 -77 -48 -25 -21 -22 -6 6 31 24 31 56 100 56 119 0 5 -15 1 -32 -10 -41
-25 -81 -45 -238 -120 -69 -33 -152 -80 -185 -105 l-59 -45 -35 35 c-21 19
-106 68 -201 114 -91 45 -187 92 -213 106 -27 14 -50 23 -53 21 -6 -7 46 -111
69 -137 21 -23 20 -23 -28 5 -140 79 -269 172 -318 228 -18 21 -18 21 -12 -14
4 -19 15 -54 25 -78 11 -23 17 -42 16 -42 -10 0 -197 82 -237 103 -124 67
-226 149 -293 236 -25 33 -46 62 -46 65 0 3 18 6 40 6 22 0 40 2 40 4 0 2 -18
23 -40 47 -43 48 -74 126 -86 219 l-6 55 20 -25 20 -25 -5 26 c-13 67 61 238
139 323 10 11 18 23 18 28 0 4 5 8 10 8 6 0 3 -14 -6 -31 -12 -24 -15 -51 -12
-103 7 -133 95 -250 217 -291 49 -16 52 -16 94 5 23 12 60 36 81 54 l39 32
-21 41 c-12 23 -24 60 -28 82 -4 23 -10 41 -14 41 -8 0 -50 -82 -51 -101 0 -8
-7 2 -14 21 -17 45 -18 155 -1 202 l13 37 -31 7 c-37 7 -120 51 -140 73 -13
14 -10 16 38 16 59 0 101 23 150 82 l27 32 -45 19 c-43 19 -44 22 -59 88 -23
103 -30 178 -22 239 6 55 7 56 58 81 65 33 63 31 44 52 -31 34 -66 127 -76
203 -12 86 5 233 35 304 9 22 20 51 25 64 9 23 10 23 37 -15 16 -22 50 -59 75
-83z"/>
<path d="M1395 2734 c-65 -10 -183 -44 -238 -69 l-58 -25 32 -39 33 -38 45 20
c166 73 428 73 581 -2 38 -18 45 -19 53 -6 4 8 20 26 35 40 l26 24 -56 26
c-92 42 -194 65 -313 69 -60 3 -123 2 -140 0z m235 -34 c81 -11 226 -55 237
-72 4 -7 1 -9 -8 -6 -96 35 -189 59 -259 65 -131 12 -272 -1 -360 -32 -99 -36
-118 -40 -105 -27 6 5 43 22 84 36 117 42 264 55 411 36z m-10 -34 c90 -16
164 -36 158 -42 -3 -2 -39 5 -81 16 -42 10 -111 22 -153 24 -43 3 -80 8 -82
11 -10 10 83 4 158 -9z m-197 -3 c-7 -2 -21 -2 -30 0 -10 3 -4 5 12 5 17 0 24
-2 18 -5z m-118 -22 c-38 -10 -83 -23 -98 -30 -16 -6 -34 -11 -40 -11 -38 2
139 58 183 58 14 0 -6 -8 -45 -17z m515 -31 c13 -8 13 -10 -2 -10 -9 0 -20 5
-23 10 -8 13 5 13 25 0z"/>
<path d="M654 2640 c12 -41 34 -96 49 -121 26 -45 124 -149 139 -149 4 0 14
13 22 29 9 16 27 43 42 60 30 36 29 38 -18 55 -94 34 -189 104 -240 177 -14
19 -13 10 6 -51z m182 -166 c26 -15 42 -30 36 -32 -15 -5 -109 58 -143 95 -58
64 -59 86 -1 26 34 -34 82 -74 108 -89z"/>
<path d="M2328 2670 c-35 -59 -56 -76 -160 -130 l-88 -46 26 -38 26 -37 36 27
c20 15 49 39 65 52 15 14 27 21 27 15 0 -9 -84 -86 -119 -110 -3 -2 1 -9 7
-15 9 -9 19 -5 43 18 101 94 174 219 167 283 -3 24 -5 23 -30 -19z m-17 -87
c-15 -28 -40 -59 -41 -50 0 8 41 67 47 67 2 0 -1 -8 -6 -17z"/>
<path d="M2383 2643 c2 -12 6 -26 10 -29 11 -11 8 19 -3 36 -8 12 -9 10 -7 -7z"/>
<path d="M609 2633 c-13 -16 -12 -17 4 -4 9 7 17 15 17 17 0 8 -8 3 -21 -13z"/>
<path d="M610 2522 c-10 -80 -10 -112 0 -168 11 -61 46 -164 56 -164 2 0 28
12 58 26 l54 27 -34 58 c-19 31 -34 60 -34 64 0 3 22 -18 49 -47 l49 -53 12
29 c9 25 8 31 -7 39 -23 13 -94 84 -116 116 -22 33 -30 22 -35 -49 -4 -50 0
-66 22 -106 30 -53 36 -95 8 -55 -22 31 -40 83 -52 146 -8 39 -7 62 4 98 11
37 12 55 2 86 -6 22 -14 42 -17 46 -4 3 -12 -39 -19 -93z m171 -189 c13 -16
12 -17 -3 -4 -10 7 -18 15 -18 17 0 8 8 3 21 -13z"/>
<path d="M1023 2560 c-88 -84 -169 -210 -188 -291 -6 -23 -3 -27 22 -32 16 -3
30 -1 32 5 38 105 144 250 220 301 l25 17 -24 25 c-13 14 -26 25 -29 25 -3 0
-30 -23 -58 -50z m77 13 c0 -5 -23 -27 -50 -51 -54 -47 -118 -134 -161 -222
-16 -30 -28 -47 -28 -37 -2 48 97 201 177 275 45 41 62 50 62 35z"/>
<path d="M1350 2596 c-95 -21 -173 -49 -158 -56 7 -4 60 -10 117 -13 97 -6
103 -5 108 13 6 22 18 26 28 9 5 -7 14 -4 26 7 10 9 19 13 19 7 0 -6 20 -8 50
-5 44 4 50 2 44 -12 -7 -18 -3 -18 108 -16 36 1 79 5 95 9 26 7 21 10 -47 30
-41 12 -88 26 -104 32 -40 13 -219 10 -286 -5z"/>
<path d="M1887 2582 l-27 -29 22 -10 c65 -30 177 -159 220 -255 14 -30 23 -38
44 -38 23 0 26 3 20 28 -17 72 -82 177 -158 253 -43 44 -82 79 -86 79 -5 0
-20 -13 -35 -28z m69 -42 c68 -53 157 -167 177 -225 6 -18 5 -18 -10 2 -33 40
-54 72 -53 80 0 5 -38 45 -86 91 -86 82 -100 108 -28 52z"/>
<path d="M2353 2573 c-8 -28 -8 -43 3 -69 11 -25 12 -49 5 -97 -12 -82 -61
-184 -82 -171 -8 4 15 51 32 64 26 21 44 115 32 168 l-8 32 -72 -97 c-67 -89
-88 -133 -64 -133 5 0 12 8 16 18 3 9 19 33 36 52 l31 35 -36 -66 -35 -66 59
-26 59 -25 14 21 c45 70 67 219 48 322 -14 74 -23 84 -38 38z"/>
<path d="M1110 2510 c-14 -10 -23 -20 -20 -23 3 -2 32 -1 65 2 l60 6 -25 18
c-31 22 -49 21 -80 -3z"/>
<path d="M1440 2524 c0 -4 8 -17 18 -28 17 -21 17 -21 -4 -3 -23 19 -70 24
-58 6 4 -8 -3 -9 -22 -6 -78 15 -104 17 -104 10 0 -12 58 -35 70 -28 5 3 8 0
5 -7 -4 -10 -30 -12 -103 -11 -99 2 -102 -1 -22 -23 35 -9 39 -12 18 -13 -15
-1 -48 -12 -75 -26 -46 -23 -47 -25 -18 -25 l30 0 -35 -27 c-81 -63 -139 -144
-165 -231 -23 -74 -16 -93 11 -33 14 29 26 52 29 50 6 -6 -24 -169 -35 -189
-15 -29 -79 -80 -100 -80 -52 0 30 -67 120 -98 36 -12 53 -21 38 -19 -16 3
-28 3 -28 1 0 -10 61 -33 102 -39 42 -6 50 -4 85 24 35 28 162 86 170 77 7 -6
-22 -22 -64 -36 -23 -7 -57 -26 -75 -41 l-33 -28 32 -11 c17 -6 34 -18 37 -26
4 -11 2 -12 -14 -4 -28 15 -38 13 -55 -14 -15 -23 -15 -27 4 -64 52 -102 194
-157 265 -101 42 33 30 59 -30 59 -17 0 -33 13 -54 42 -57 79 -25 118 102 126
99 6 167 -22 168 -69 0 -9 -14 -35 -30 -57 -23 -33 -37 -42 -59 -42 -16 0 -34
-7 -41 -15 -9 -11 -7 -19 14 -40 57 -57 197 -13 251 78 14 24 25 53 25 64 0
30 -25 46 -57 38 -23 -5 -25 -4 -14 9 8 9 22 16 32 16 45 0 1 44 -82 81 -27
13 -49 26 -49 30 0 12 109 -39 157 -73 25 -18 55 -31 73 -31 16 0 27 -4 24 -9
-8 -12 17 -9 51 7 l30 14 -30 -6 c-47 -9 -26 3 44 26 78 26 91 26 60 4 -41
-31 -87 -53 -144 -72 -52 -17 -55 -17 -55 -1 0 17 -28 36 -38 25 -3 -3 1 -5 8
-5 7 0 10 -3 7 -7 -4 -3 -2 -12 4 -19 6 -8 9 -20 6 -28 -4 -10 -1 -13 9 -9 7
3 14 10 14 15 0 6 14 8 34 4 18 -4 45 -2 60 4 33 12 33 1 -1 -24 -14 -11 -23
-14 -18 -7 6 10 2 11 -16 6 -13 -5 -30 -8 -38 -9 -8 -1 -34 -39 -58 -86 -47
-90 -59 -121 -100 -240 -32 -96 -53 -125 -111 -151 -38 -16 -62 -20 -122 -17
-128 6 -184 50 -215 167 -38 141 -49 169 -80 216 -18 28 -39 62 -46 78 -11 25
-17 27 -68 28 l-56 0 55 22 55 22 -65 5 c-68 7 -98 18 -131 51 -34 34 -39 20
-10 -23 30 -44 81 -97 85 -88 1 3 14 -5 30 -17 35 -28 16 -29 -43 -3 -24 11
-46 19 -48 16 -8 -8 63 -59 115 -83 65 -29 63 -41 -3 -18 -26 8 -50 14 -52 12
-2 -3 21 -19 52 -36 75 -42 139 -103 164 -154 11 -23 23 -73 27 -112 8 -79 28
-127 73 -169 35 -34 37 -32 16 17 -18 42 -19 57 -5 57 6 0 10 -9 10 -20 0 -19
78 -115 87 -107 2 2 -3 17 -12 33 -26 50 -16 51 26 1 l41 -47 46 39 c50 44 64
46 38 7 -9 -14 -16 -29 -16 -33 0 -13 62 52 77 82 8 17 24 40 35 52 11 11 26
38 34 60 l14 38 -6 -45 c-8 -53 -23 -88 -33 -72 -4 6 -14 -9 -23 -34 -8 -24
-12 -44 -9 -44 18 0 69 73 79 112 6 24 18 75 28 113 9 39 28 87 42 107 28 43
116 105 161 114 51 11 23 27 -33 19 -31 -4 -64 -16 -85 -32 -41 -31 -29 -6 14
29 34 28 120 78 132 78 4 0 -16 -14 -44 -31 -98 -57 -55 -46 66 17 70 37 72
39 43 42 -17 2 -48 -1 -68 -7 -54 -15 -55 -5 -3 18 24 11 56 32 70 48 33 34
63 93 49 93 -5 0 -10 -4 -10 -8 0 -11 -100 -66 -107 -59 -2 3 10 13 27 22 18
9 52 35 76 57 26 24 44 35 45 27 0 -8 4 -5 9 6 13 31 12 45 -5 39 -8 -4 -13
-10 -10 -15 8 -11 -22 -25 -72 -34 -29 -4 -43 -3 -43 4 0 6 8 11 18 11 10 0
40 14 65 31 53 35 70 55 39 45 -11 -4 -36 0 -55 7 -43 18 -77 84 -77 148 0 24
-4 59 -9 77 -14 47 2 39 27 -14 27 -56 38 -52 22 7 -28 102 -109 218 -190 271
l-25 17 35 1 35 0 -54 25 c-43 20 -66 25 -108 22 -52 -4 -72 6 -33 16 11 3 18
1 14 -4 -3 -5 -1 -9 5 -9 5 0 13 5 16 11 4 6 14 8 22 5 8 -4 34 -1 57 6 l41
11 -50 9 c-27 5 -70 6 -95 2 -25 -5 -49 -9 -55 -9 -18 -3 -50 -18 -77 -37 -23
-16 -27 -16 -22 -4 3 9 10 16 15 16 5 0 18 9 30 21 11 11 29 19 38 16 10 -2
37 6 62 19 l44 24 -50 -6 c-27 -3 -63 -8 -80 -10 -23 -4 -26 -3 -15 5 12 9 9
11 -14 11 -16 0 -38 -8 -49 -17 -19 -17 -20 -17 -8 4 15 29 14 38 -4 23 -8 -6
-19 -9 -24 -5 -7 4 -8 -1 -4 -12 6 -17 5 -17 -13 -2 -27 23 -44 31 -44 23z
m28 -77 c12 -11 22 -24 22 -29 0 -17 -16 -7 -44 29 -30 37 -20 37 22 0z m-57
3 c21 -17 21 -19 4 -13 -11 3 -29 12 -40 20 -16 10 -16 13 -3 13 9 0 26 -9 39
-20z m135 -15 c-15 -23 -36 -34 -36 -18 0 10 43 54 48 48 3 -2 -3 -16 -12 -30z
m-227 -14 c8 -5 9 -11 3 -15 -5 -3 -15 1 -22 9 -14 16 -3 20 19 6z m-38 -32
c21 -7 36 -16 33 -21 -3 -5 0 -17 7 -26 8 -10 3 -8 -11 4 -30 26 -65 38 -105
36 -25 -1 -27 0 -10 7 27 13 42 13 86 0z m514 5 c12 -5 13 -9 4 -14 -8 -6 0
-15 24 -31 20 -13 37 -31 37 -39 -1 -12 -3 -12 -14 2 -7 10 -17 14 -21 10 -5
-4 -5 -1 -1 6 4 6 2 12 -4 12 -7 0 -21 11 -31 24 -11 14 -29 27 -42 29 -19 4
-19 4 5 6 14 0 34 -2 43 -5z m-76 -16 c-2 -2 -20 -16 -39 -33 -19 -16 -27 -21
-17 -9 9 11 17 26 17 32 0 6 8 12 18 14 16 4 30 1 21 -4z m-314 -97 c14 -24
32 -62 39 -85 8 -23 17 -49 21 -58 4 -10 3 -18 -3 -18 -6 0 -14 15 -17 33 -11
47 -44 115 -82 168 -18 26 -33 51 -33 55 1 14 47 -45 75 -95z m249 66 c-36
-40 -72 -111 -108 -211 -3 -10 -9 -16 -13 -13 -10 10 56 160 94 211 19 26 37
45 40 42 4 -3 -3 -16 -13 -29z m-434 3 c0 -5 -7 -10 -16 -10 -9 0 -29 -13 -45
-29 -15 -17 -37 -35 -48 -41 -12 -6 -20 -14 -18 -19 1 -5 -10 -20 -26 -35 -15
-14 -28 -28 -28 -31 -3 -25 -13 -44 -20 -39 -15 9 18 61 75 121 71 74 126 110
126 83z m122 -60 c24 -22 37 -40 28 -40 -8 0 0 -15 23 -38 51 -53 47 -66 -5
-15 -24 23 -59 50 -78 62 -19 12 -28 21 -20 21 9 0 26 -7 38 -16 13 -9 25 -14
27 -12 8 7 -11 25 -55 51 -34 20 -40 27 -23 27 12 0 41 -18 65 -40z m358 19
c-19 -12 -46 -31 -60 -43 -20 -17 -19 -14 5 14 38 44 46 50 70 50 15 0 12 -5
-15 -21z m220 -65 c0 -8 4 -13 10 -11 5 1 21 -18 36 -43 l26 -45 -41 45 c-22
25 -41 51 -41 58 0 7 -5 10 -10 7 -9 -5 -31 34 -30 53 1 14 50 -49 50 -64z
m-662 -42 c118 -75 182 -155 182 -226 0 -25 -7 -40 -24 -53 l-24 -18 23 -25
c13 -14 27 -38 30 -55 l7 -30 -28 38 c-34 46 -62 52 -39 7 8 -16 15 -37 15
-47 -1 -17 -1 -17 -15 1 -8 10 -16 24 -18 30 -2 6 -14 3 -33 -9 -64 -42 -158
-49 -211 -15 -15 9 -14 10 7 3 70 -22 197 9 214 53 9 25 -1 30 -22 11 -10 -9
-33 -22 -50 -28 -27 -9 -39 -7 -78 11 -50 25 -83 78 -84 133 0 19 -14 44 -40
75 -22 25 -38 47 -36 50 3 2 20 -5 39 -17 27 -17 116 -50 135 -51 2 0 -6 13
-17 29 -22 30 -53 133 -46 154 2 7 6 25 10 40 l6 29 21 -27 c12 -15 46 -43 76
-63z m421 49 c-24 -15 -59 -44 -78 -62 -19 -19 -29 -25 -23 -14 20 38 104 105
131 105 8 0 -5 -13 -30 -29z m175 13 c3 -9 6 -40 6 -71 0 -41 -7 -66 -27 -100
l-26 -45 24 7 c49 15 90 38 109 63 11 13 20 19 20 13 0 -17 -17 -49 -48 -91
-17 -21 -25 -44 -24 -61 2 -15 -6 -45 -17 -67 -41 -81 -116 -104 -185 -57 -38
26 -45 23 -21 -11 31 -45 225 -71 225 -30 0 7 7 21 15 32 13 17 14 16 4 -14
-14 -43 -35 -52 -111 -52 -46 1 -76 7 -112 25 -51 24 -66 24 -66 0 0 -8 -5
-17 -12 -21 -11 -7 -10 3 8 76 l6 25 -22 -25 c-12 -14 -28 -34 -36 -44 -7 -11
-16 -17 -19 -14 -7 7 38 82 54 92 5 4 -1 17 -15 31 -59 59 -7 162 131 260 22
16 52 40 68 54 15 14 27 19 27 12 0 -7 4 -9 10 -6 12 7 -2 -32 -22 -64 -20
-32 -31 -25 -13 9 23 44 19 45 -33 1 -27 -23 -52 -41 -58 -41 -21 -1 -103 -98
-114 -138 -11 -35 -11 -45 4 -67 23 -35 59 -32 115 9 47 35 100 86 88 86 -4 0
-30 -18 -59 -40 -31 -23 -60 -39 -70 -36 -10 2 -21 0 -24 -5 -8 -13 -44 9 -44
27 0 29 43 93 84 125 l41 32 -42 -44 c-41 -43 -80 -115 -68 -127 3 -3 22 3 43
13 20 11 43 19 50 20 26 1 93 67 118 117 20 40 25 62 22 104 -3 53 4 70 16 38z
m-711 -129 c9 -25 14 -45 11 -45 -6 0 -34 65 -34 80 0 21 9 8 23 -35z m747 11
c0 -8 -9 -24 -20 -37 l-19 -24 17 38 c17 40 22 45 22 23z m-770 -47 c15 -28 5
-23 -15 7 -9 15 -12 23 -6 20 6 -4 16 -16 21 -27z m443 -62 c-5 -7 -18 -34
-27 -60 -10 -27 -20 -47 -22 -45 -1 2 8 35 22 73 13 39 24 72 25 75 1 3 3 -3
6 -13 3 -10 1 -23 -4 -30z m-533 -52 c-10 -45 -45 -96 -82 -121 -15 -10 -28
-21 -28 -24 0 -4 37 -20 122 -52 15 -6 32 -16 38 -22 14 -18 -95 20 -147 51
l-44 25 33 17 c18 10 48 39 66 65 25 38 32 59 33 100 1 42 2 46 9 24 4 -15 4
-43 0 -63z m420 57 c0 -15 -2 -15 -10 -2 -13 20 -13 33 0 25 6 -3 10 -14 10
-23z m496 -40 c-11 -10 -15 4 -8 28 l7 25 3 -23 c2 -13 1 -26 -2 -30z m-867
-17 c0 -5 -4 -3 -9 5 -5 8 -9 22 -9 30 0 16 17 -16 18 -35z m407 -42 c-5 -5
-36 62 -36 76 1 3 10 -11 21 -32 11 -22 18 -41 15 -44z m491 25 c-3 -7 -5 -2
-5 12 0 14 2 19 5 13 2 -7 2 -19 0 -25z m-38 -46 c-17 -48 -32 -66 -19 -21 6
18 10 47 10 64 1 25 2 27 11 12 7 -12 6 -28 -2 -55z m-847 23 c3 -13 1 -22 -3
-19 -9 5 -13 44 -5 44 2 0 6 -11 8 -25z m911 -44 c7 -13 26 -33 42 -43 l30
-18 -33 0 c-20 0 -31 4 -27 10 3 6 2 10 -2 10 -10 0 -33 59 -32 81 0 11 2 11
6 -1 2 -8 10 -26 16 -39z m-463 -10 c26 -1 31 -4 20 -11 -16 -10 -109 -12
-125 -2 -11 7 33 20 55 16 8 -1 31 -3 50 -3z m500 -71 c0 -5 -8 -10 -17 -10
-15 0 -16 2 -3 10 19 12 20 12 20 0z m-40 -30 c-29 -8 -40 -3 -21 10 8 4 21 5
30 2 12 -5 10 -8 -9 -12z m-14 -35 c-21 -16 -32 -13 -21 4 3 6 14 11 23 11 15
-1 15 -2 -2 -15z m-132 -4 c4 -5 -3 -7 -14 -4 -23 6 -26 13 -6 13 8 0 17 -4
20 -9z m76 -26 c-14 -8 -29 -14 -35 -14 -5 0 1 6 15 14 14 8 30 14 35 14 6 0
-1 -6 -15 -14z m110 -78 c0 -2 -10 -12 -22 -23 l-23 -19 19 23 c18 21 26 27
26 19z m-719 -88 c33 -6 62 -16 65 -21 7 -10 -72 -6 -83 5 -3 4 -14 7 -24 7
-18 0 -79 52 -79 68 0 6 14 -3 31 -19 21 -19 49 -32 90 -40z m469 51 c0 -15
-76 -60 -113 -67 -18 -3 -40 -10 -49 -15 -14 -6 -16 -5 -12 7 4 8 18 18 33 21
38 8 121 46 121 56 0 4 5 8 10 8 6 0 10 -4 10 -10z m103 -56 c-14 -25 -27 -43
-30 -40 -5 4 44 86 51 86 3 0 -7 -20 -21 -46z m-755 -62 c13 -8 28 -24 34 -36
9 -17 4 -15 -24 9 -19 17 -43 35 -54 42 -18 12 -18 12 1 6 11 -4 30 -13 43
-21z m177 -342 c19 -24 19 -24 1 -10 -18 14 -19 13 -12 -5 5 -11 10 -29 13
-40 4 -20 4 -20 -11 -1 -9 11 -16 35 -16 55 0 19 1 32 3 30 1 -2 11 -15 22
-29z"/>
<path d="M1161 2225 c-1 -22 4 -57 9 -77 12 -42 106 -152 125 -145 6 3 22 -4
36 -14 46 -35 84 -15 59 32 -7 12 -31 42 -54 67 -38 43 -39 44 -9 24 56 -40
91 -103 78 -143 -6 -18 -12 -20 -43 -14 -21 3 -56 19 -80 35 -52 36 -58 37
-29 6 35 -37 98 -76 123 -76 26 0 54 34 54 65 0 37 -44 99 -105 148 -78 63
-130 94 -121 72 3 -8 9 -23 12 -32 9 -29 -30 26 -43 61 l-11 31 -1 -40z"/>
<path d="M1146 1986 c-10 -41 20 -102 60 -121 28 -13 41 -14 69 -5 38 13 61
35 46 44 -6 4 -19 -2 -31 -14 -27 -27 -56 -25 -87 6 -24 24 -26 41 -12 94 2 9
-4 16 -17 18 -16 2 -23 -3 -28 -22z"/>
<path d="M1300 1996 c0 -2 8 -10 18 -17 15 -13 16 -12 3 4 -13 16 -21 21 -21
13z"/>
<path d="M1198 1965 c-10 -22 -8 -30 9 -53 11 -15 27 -28 35 -30 18 -3 66 33
56 43 -4 4 -14 0 -23 -9 -20 -20 -29 -20 -45 -1 -7 9 -10 27 -6 45 7 37 -10
40 -26 5z"/>
<path d="M1244 1950 c0 -13 4 -16 10 -10 7 7 7 13 0 20 -6 6 -10 3 -10 -10z"/>
<path d="M1827 2013 c-15 -4 -17 -11 -11 -48 5 -38 3 -47 -19 -69 -29 -29 -62
-33 -93 -11 -12 8 -24 11 -28 8 -11 -11 48 -43 79 -43 60 0 105 56 105 130 0
22 -3 39 -7 39 -5 -1 -16 -3 -26 -6z"/>
<path d="M1669 1983 c-13 -15 -12 -15 9 -4 23 12 28 21 13 21 -5 0 -15 -7 -22
-17z"/>
<path d="M1791 1964 c-1 -38 -22 -58 -56 -52 -14 3 -28 1 -31 -3 -7 -13 40
-29 64 -22 28 7 46 52 33 84 -9 23 -10 23 -10 -7z"/>
<path d="M1742 1955 c-17 -19 -18 -25 -7 -25 8 0 15 5 15 11 0 5 4 8 8 5 4 -2
9 4 9 15 2 24 1 24 -25 -6z"/>
<path d="M1814 2516 c-25 -19 -19 -22 44 -28 58 -6 67 4 22 27 -36 19 -41 19
-66 1z"/>
<path d="M1042 2448 c-22 -22 -13 -28 41 -27 47 0 49 2 25 11 -16 5 -28 14
-28 19 0 13 -24 11 -38 -3z"/>
<path d="M1120 2456 c0 -2 7 -9 15 -16 13 -11 14 -10 9 4 -5 14 -24 23 -24 12z"/>
<path d="M1860 2449 c0 -4 -3 -14 -6 -22 -3 -8 2 -17 11 -21 11 -4 15 -2 12 6
-2 7 2 20 9 28 11 13 10 16 -6 16 -11 0 -20 -3 -20 -7z"/>
<path d="M1930 2445 c-7 -8 -20 -15 -29 -16 -10 0 -8 -4 7 -10 13 -5 34 -6 47
-3 21 5 22 9 12 25 -14 23 -21 24 -37 4z"/>
<path d="M1024 2402 c3 -6 22 -16 42 -22 25 -8 33 -15 26 -22 -7 -7 -24 -4
-53 10 -24 12 -44 20 -45 19 -11 -14 -53 -99 -61 -124 -10 -28 -9 -34 13 -54
13 -12 25 -21 26 -18 2 2 12 21 23 42 10 22 41 58 67 82 54 48 62 75 22 75
-14 0 -35 5 -46 11 -13 7 -18 7 -14 1z"/>
<path d="M1986 2391 c-3 -5 -22 -16 -41 -26 l-36 -17 23 -21 c46 -43 110 -137
112 -164 1 -16 4 -32 8 -38 3 -5 8 -28 9 -50 3 -31 0 -42 -16 -50 -11 -5 -20
-16 -19 -22 1 -7 2 -24 3 -37 1 -28 46 -86 67 -86 18 0 19 95 3 222 -10 74
-14 86 -26 77 -22 -19 -25 -4 -3 24 26 33 26 37 -10 105 -46 86 -62 104 -74
83z"/>
<path d="M2193 2377 c-24 -24 -29 -37 -14 -37 5 0 19 14 31 30 25 35 15 39
-17 7z"/>
<path d="M1897 2369 c-5 -20 -5 -20 14 -3 23 20 23 24 5 24 -7 0 -16 -9 -19
-21z"/>
<path d="M2148 2234 c-2 -1 3 -55 11 -118 l15 -116 48 -16 c26 -8 48 -20 48
-25 0 -12 -51 0 -71 17 -20 18 -29 8 -23 -25 6 -26 -10 -195 -22 -238 -6 -22
-4 -23 54 -23 l60 0 13 102 c10 82 10 128 0 242 -7 77 -16 147 -21 156 -8 14
-104 52 -112 44z"/>
<path d="M903 2185 c0 -22 -2 -74 -6 -115 -7 -75 -7 -75 8 -35 8 21 19 42 24
45 5 3 16 22 25 43 l16 39 -34 31 -33 32 0 -40z"/>
<path d="M2115 2216 c-5 -11 -3 -62 3 -115 7 -53 12 -126 12 -163 0 -57 3 -68
17 -68 14 0 15 11 9 108 -10 144 -30 263 -41 238z"/>
<path d="M757 2205 c-26 -26 -42 -116 -42 -240 0 -97 5 -137 25 -207 l24 -88
38 0 c43 0 42 -4 27 95 -22 151 -3 397 33 430 10 10 7 -20 -9 -80 -15 -60 -24
-135 -19 -175 3 -25 6 -53 6 -64 1 -17 2 -17 19 -2 10 9 22 16 28 16 13 0 73
57 73 69 0 5 3 16 6 25 3 9 1 16 -5 16 -6 0 -11 -6 -11 -13 0 -23 -45 -68 -61
-62 -10 4 -20 -3 -28 -17 -10 -20 -11 -17 -6 22 9 84 35 241 41 251 7 12 -57
39 -95 39 -16 0 -36 -7 -44 -15z m38 -254 c-15 -15 -65 -25 -65 -13 0 13 17
20 50 21 15 1 20 -3 15 -8z"/>
<path d="M703 2187 c-26 -11 -42 -71 -50 -189 -5 -69 -4 -76 13 -81 17 -4 17
-5 1 -6 -15 -1 -17 -7 -12 -38 15 -88 37 -159 55 -177 25 -25 34 -17 20 20
-41 106 -50 296 -20 409 10 39 17 71 16 71 0 1 -11 -3 -23 -9z"/>
<path d="M2283 2168 c28 -109 33 -333 11 -430 -5 -21 -3 -28 8 -28 10 0 19 18
27 57 14 73 14 123 -1 123 -7 0 -5 5 5 13 14 11 15 26 7 137 -7 100 -12 127
-26 137 -26 19 -37 16 -31 -9z"/>
<path d="M605 2124 c-38 -22 -40 -26 -46 -81 -5 -55 12 -227 27 -266 5 -13 85
-64 84 -54 0 1 -9 45 -20 97 -22 106 -25 191 -10 270 6 29 9 54 8 55 -2 1 -21
-9 -43 -21z m10 -224 c-3 -5 -16 -10 -28 -9 -21 0 -21 1 -2 9 28 12 37 12 30
0z"/>
<path d="M2358 1995 c2 -89 -1 -176 -7 -206 -6 -29 -9 -54 -7 -57 3 -2 20 4
37 14 42 25 49 50 56 215 l6 137 -41 26 c-23 14 -43 26 -44 26 -2 0 -1 -70 0
-155z m55 -112 c-7 -2 -19 -2 -25 0 -7 3 -2 5 12 5 14 0 19 -2 13 -5z"/>
<path d="M928 2060 c-4 -8 -11 -33 -16 -55 -5 -22 -13 -49 -18 -60 -7 -18 -6
-18 9 -6 21 17 40 79 35 111 -3 18 -6 21 -10 10z"/>
<path d="M845 1759 c8 -84 10 -90 29 -83 21 8 29 -42 11 -70 -15 -22 -14 -24
9 -40 14 -9 30 -16 36 -16 5 0 11 -6 11 -12 1 -7 3 -20 4 -28 1 -8 3 -21 4
-27 0 -7 10 -13 20 -13 11 0 23 -4 26 -10 3 -5 11 -10 18 -10 8 0 8 3 -1 12
-7 7 -12 19 -12 29 0 9 -13 27 -28 40 -38 32 -46 47 -33 63 8 10 6 19 -7 37
-28 36 -74 141 -74 167 0 12 -5 25 -10 28 -7 4 -8 -19 -3 -67z"/>
<path d="M885 1771 c34 -36 109 -81 136 -81 10 0 20 -4 23 -9 3 -4 16 -6 30
-4 21 4 15 10 -43 40 -36 20 -68 38 -71 42 -3 3 -18 11 -35 17 -16 6 -39 15
-50 19 -16 6 -13 1 10 -24z m65 -21 c0 -5 -2 -10 -4 -10 -3 0 -8 5 -11 10 -3
6 -1 10 4 10 6 0 11 -4 11 -10z"/>
<path d="M2120 1713 c0 -43 5 -41 13 5 4 18 2 32 -3 32 -6 0 -10 -16 -10 -37z"/>
<path d="M1128 1679 c-7 -4 -6 -9 1 -13 6 -4 11 -16 11 -27 0 -29 14 -23 31
15 15 33 15 34 -9 32 -13 0 -28 -4 -34 -7z"/>
<path d="M1422 1680 c-52 -12 -59 -25 -38 -65 21 -38 43 -61 52 -52 3 2 -6 16
-20 30 -14 15 -26 31 -26 37 0 20 47 10 70 -15 13 -14 31 -25 40 -25 9 0 27
11 40 25 23 25 70 35 70 15 0 -6 -11 -22 -25 -36 -27 -27 -30 -34 -15 -34 16
0 63 78 57 94 -12 30 -126 45 -205 26z m96 -17 c-10 -2 -28 -2 -40 0 -13 2 -5
4 17 4 22 1 32 -1 23 -4z m12 -23 c0 -5 -15 -9 -34 -7 -19 1 -32 5 -29 10 6
11 63 9 63 -3z"/>
<path d="M2269 1667 c-33 -19 -42 -20 -88 -11 -48 10 -51 9 -51 -11 0 -22 24
-62 50 -82 13 -11 10 -12 -15 -13 -16 -1 -49 -11 -73 -23 l-42 -23 36 -34 c20
-19 42 -48 50 -65 16 -36 19 -9 3 32 -8 23 -8 26 3 15 8 -8 14 -45 15 -105 2
-74 0 -85 -7 -57 -6 19 -15 52 -20 72 -7 25 -21 43 -46 58 -41 26 -61 23 -129
-21 -28 -18 -51 -33 -52 -33 -1 -1 4 -22 9 -48 9 -36 8 -65 -2 -120 -8 -40
-15 -80 -16 -88 0 -9 -7 -27 -14 -40 -18 -33 -25 -9 -11 32 14 41 13 116 -2
152 l-12 28 -22 -48 c-11 -27 -31 -76 -43 -109 -31 -81 -78 -128 -178 -177
-46 -22 -92 -50 -103 -61 -17 -18 -19 -19 -19 -3 0 10 -14 23 -37 32 -151 59
-199 107 -258 255 -22 56 -44 102 -50 103 -17 2 -30 -91 -17 -127 6 -18 14
-50 17 -72 l6 -40 -30 35 c-28 32 -80 128 -95 174 -12 35 -14 11 -4 -49 12
-82 50 -161 102 -215 79 -82 85 -126 6 -48 -72 73 -141 237 -139 337 0 47 2
52 10 31 6 -13 18 -33 27 -43 9 -10 31 -46 47 -80 33 -66 65 -94 40 -34 -22
53 -29 130 -15 172 12 36 11 38 -16 61 -16 13 -60 39 -99 58 l-70 35 -32 -31
c-46 -44 -41 -25 8 34 23 27 40 50 38 51 -33 23 -127 38 -115 19 3 -5 -6 -15
-19 -22 -67 -36 -95 -174 -55 -269 17 -38 19 -53 10 -75 -9 -24 -8 -27 6 -22
8 3 24 1 35 -5 19 -10 19 -9 9 10 -6 12 -18 21 -28 22 -9 0 -12 3 -7 5 6 2 9
19 7 38 -2 18 1 49 6 69 12 41 7 49 -9 15 -8 -19 -9 -16 -5 15 7 54 47 137 86
175 41 42 51 34 16 -12 -15 -20 -27 -39 -28 -43 -1 -5 -10 -17 -20 -27 -14
-16 -18 -36 -18 -98 0 -88 20 -153 75 -238 l34 -55 1 66 c0 38 9 97 21 135 28
96 29 98 35 91 4 -3 0 -28 -7 -55 -15 -61 -2 -140 36 -219 32 -64 72 -104 156
-154 37 -22 75 -49 85 -61 19 -20 19 -21 -6 -14 -18 5 -16 1 10 -13 19 -10 36
-18 38 -17 1 2 -15 30 -37 62 -35 53 -77 161 -67 172 3 2 11 -10 20 -26 24
-46 62 -88 127 -137 33 -25 62 -45 65 -45 4 0 -5 15 -18 33 -34 44 -41 57 -31
57 16 0 102 -90 128 -134 l27 -46 28 43 c25 40 180 177 180 159 0 -4 -14 -24
-31 -45 -35 -43 -31 -46 13 -14 62 44 83 66 103 111 25 58 35 58 24 1 -9 -47
-32 -100 -49 -110 -5 -3 -10 -10 -10 -15 0 -5 21 2 48 16 26 15 58 33 72 40
44 24 121 107 147 159 21 41 26 65 27 132 1 44 4 79 8 77 20 -13 40 -111 36
-175 l-5 -69 24 32 c72 96 101 201 83 300 -7 35 -21 76 -32 92 -16 23 -18 33
-9 52 6 13 19 24 29 24 27 0 33 10 20 34 -7 13 8 5 40 -23 56 -46 65 -59 30
-40 -20 11 -95 15 -105 6 -2 -3 5 -24 15 -48 23 -51 52 -166 52 -204 0 -61
-109 -235 -147 -235 -7 0 -16 11 -19 26 l-6 25 -24 -35 c-13 -19 -24 -40 -24
-45 0 -6 -3 -11 -8 -11 -4 0 -13 -9 -20 -21 -8 -12 -9 -18 -3 -14 27 16 7 -16
-30 -49 -52 -47 -123 -93 -229 -146 -47 -24 -109 -58 -137 -77 -29 -18 -53
-29 -53 -25 0 4 32 41 70 82 38 41 65 76 60 78 -16 6 -100 -49 -125 -82 -13
-17 -29 -45 -36 -61 l-12 -30 -10 39 c-8 34 -20 45 -103 98 -52 33 -92 63 -90
67 2 3 -5 15 -16 26 -19 20 -19 20 -9 -8 6 -15 29 -55 51 -88 22 -33 40 -65
40 -71 0 -5 -20 8 -44 29 -24 21 -70 52 -102 68 -98 51 -159 92 -192 130 -36
40 -43 58 -12 30 27 -24 25 -11 -2 28 -13 17 -30 49 -39 72 l-17 40 -9 -35
c-16 -59 -53 -47 -100 34 -11 18 -12 12 -7 -34 6 -60 42 -164 75 -217 11 -18
18 -33 15 -33 -18 0 104 -143 170 -200 24 -21 24 -19 -6 15 -19 22 -46 55 -60
74 -14 18 -31 39 -38 46 -6 8 -12 18 -12 23 0 6 -3 12 -7 14 -13 5 -43 65 -58
115 -18 57 -17 56 -6 48 6 -3 25 -38 45 -78 44 -93 119 -190 198 -261 58 -51
311 -216 332 -216 8 0 107 44 186 83 56 27 180 119 241 178 53 51 123 138 146
183 14 26 27 96 19 96 -2 0 -17 -22 -35 -49 -17 -27 -64 -79 -103 -116 -73
-68 -107 -84 -44 -20 59 58 155 234 114 209 -7 -4 -8 -3 -4 5 13 20 28 0 24
-30 -5 -35 -1 -36 24 -4 26 33 44 16 42 -41 -2 -67 -56 -147 -179 -266 -32
-32 -55 -58 -50 -58 27 0 214 206 216 237 0 5 7 15 15 24 8 9 11 19 7 22 -3 4
-2 7 4 7 17 0 72 158 88 252 4 29 13 42 38 55 23 12 27 18 15 21 -14 3 -13 8
8 45 13 23 26 61 30 84 8 51 -11 134 -38 168 -11 14 -15 25 -10 25 10 0 119
-114 140 -145 11 -17 12 -13 6 30 -7 64 -35 128 -71 162 -21 20 -23 24 -8 18
25 -10 124 -19 151 -13 14 3 8 9 -26 26 -43 22 -90 74 -90 100 0 18 -20 14
-61 -11z m22 -68 c64 -21 120 -47 69 -33 -14 4 -45 8 -70 9 -25 1 -57 5 -72
10 -22 5 -25 10 -15 21 16 17 13 17 88 -7z m37 -159 c17 -27 10 -25 -19 6 -13
14 -17 23 -9 19 9 -3 21 -14 28 -25z m-1430 -42 c-35 -38 -58 -85 -59 -125
l-1 -28 -8 25 c-4 14 -8 49 -9 79 -1 47 1 52 12 37 11 -16 15 -15 42 14 16 16
34 30 41 30 7 0 -2 -15 -18 -32z m56 -5 c-8 -21 -19 -45 -24 -54 -5 -9 -12
-34 -16 -55 -5 -22 -9 -42 -10 -46 -1 -5 -2 -32 -3 -60 -2 -46 -4 -50 -12 -28
-17 41 -1 149 32 218 33 67 57 86 33 25z m1137 -41 c13 -35 23 -89 25 -137 l4
-80 -18 65 c-17 61 -58 135 -85 152 -9 6 -9 8 1 8 7 0 24 -12 37 -26 16 -18
25 -22 25 -12 0 7 -5 19 -12 26 -7 7 -8 12 -4 12 5 0 4 6 -1 13 -19 23 -23 46
-8 41 8 -3 24 -31 36 -62z m-1028 1 c31 -41 14 -34 -22 9 -18 22 -25 34 -15
28 11 -7 27 -23 37 -37z m954 -52 c-3 -22 -17 -65 -31 -97 -28 -60 -44 -70
-25 -15 6 17 9 45 7 61 -4 24 -2 27 9 19 9 -8 13 -8 14 0 1 6 3 16 4 21 1 6 3
19 4 30 0 11 6 20 12 20 8 0 10 -14 6 -39z m-64 -73 c-6 -33 -39 -108 -48
-108 -2 0 5 19 15 43 11 23 20 51 20 63 0 18 8 34 16 34 2 0 1 -15 -3 -32z
m-763 -153 c17 -50 34 -78 76 -121 31 -31 53 -58 51 -60 -5 -5 -83 73 -114
114 -21 28 -59 147 -43 137 5 -3 18 -34 30 -70z m661 48 c-11 -35 -44 -93 -53
-93 -4 0 -4 7 -1 17 4 11 3 14 -5 9 -7 -4 -5 8 4 31 19 45 30 58 19 23 -16
-53 -15 -54 10 -7 29 53 37 60 26 20z m118 -55 c-27 -55 -81 -121 -120 -149
-54 -38 -43 -11 24 60 36 39 76 88 89 110 30 52 36 36 7 -21z m-664 -110 c22
-21 35 -38 28 -38 -13 0 -90 84 -105 115 -5 11 1 7 14 -10 13 -16 41 -47 63
-67z m464 30 c-20 -39 -51 -79 -56 -74 -5 5 54 96 63 96 3 0 -1 -10 -7 -22z
m-49 -12 c0 -2 -7 -7 -16 -10 -8 -3 -12 -2 -9 4 6 10 25 14 25 6z m-768 -33
c13 -11 18 -12 18 -3 0 7 11 -4 25 -25 15 -20 24 -39 21 -42 -5 -6 -65 36 -83
57 -25 31 -11 41 19 13z m682 -18 c-10 -8 -23 -15 -28 -15 -6 0 -1 7 10 15 10
8 23 15 28 15 6 0 1 -7 -10 -15z m-250 -34 c-2 -3 -12 3 -22 13 -16 17 -16 18
5 5 12 -7 20 -15 17 -18z m170 -19 c-23 -20 -47 -46 -53 -57 -10 -20 -10 -20
-11 2 0 20 -15 36 -66 71 -11 7 -3 5 16 -4 19 -10 41 -24 48 -33 11 -14 13
-14 25 -1 13 17 69 59 77 59 3 0 -14 -16 -36 -37z m-519 -72 c22 -30 44 -61
50 -69 5 -7 44 -49 85 -93 80 -84 96 -107 63 -89 -35 18 -180 178 -232 256
-84 126 -57 122 34 -5z m1025 83 c0 -10 -105 -138 -166 -204 -49 -51 -187
-169 -199 -169 -3 0 -19 -10 -35 -22 -25 -18 -32 -20 -43 -8 -9 10 -9 12 1 6
6 -4 12 -3 12 3 0 6 15 18 33 27 64 34 257 210 343 314 51 62 54 65 54 53z
m-635 -23 c10 -11 16 -20 13 -20 -3 0 -13 9 -23 20 -10 11 -16 20 -13 20 3 0
13 -9 23 -20z m315 -211 c-156 -136 -256 -158 -396 -87 -67 33 -165 98 -150
98 4 0 33 -13 66 -30 128 -65 274 -60 419 12 47 24 88 42 91 41 2 -2 -11 -17
-30 -34z"/>
<path d="M1463 562 c-18 -2 -33 -7 -33 -11 0 -13 84 -11 115 3 l30 14 -40 -1
c-22 -1 -55 -3 -72 -5z"/>
<path d="M653 1641 c-18 -22 -51 -47 -73 -58 -22 -10 -40 -22 -40 -27 0 -19
120 2 167 29 54 31 143 55 108 29 -10 -8 -28 -14 -40 -14 -58 0 -138 -113
-152 -215 -7 -52 0 -57 22 -16 8 16 36 50 62 75 60 59 49 71 -13 14 l-48 -43
20 34 c20 35 131 141 147 141 6 0 0 -11 -13 -25 -13 -14 -20 -25 -15 -25 12 0
95 88 95 101 0 5 -30 9 -67 9 -40 1 -78 7 -93 15 -33 19 -31 20 -67 -24z m83
-19 c-7 -11 -61 -37 -96 -46 -14 -4 -3 5 25 19 27 14 54 30 59 35 11 11 21 5
12 -8z"/>
<path d="M2080 1629 c-23 -19 -23 -22 -7 -34 9 -7 17 -17 17 -23 0 -5 9 -8 20
-5 17 4 18 8 8 27 -7 11 -11 29 -9 39 3 21 2 21 -29 -4z"/>
<path d="M1432 1598 c3 -7 19 -23 36 -35 37 -24 64 -17 95 24 23 30 0 32 -31
2 -24 -22 -51 -19 -72 6 -15 18 -33 20 -28 3z"/>
<path d="M1758 1497 c-32 -33 -38 -46 -38 -81 l1 -41 40 79 c22 43 39 79 37
80 -2 0 -20 -16 -40 -37z"/>
<path d="M620 1519 c0 -5 5 -7 10 -4 6 3 10 8 10 11 0 2 -4 4 -10 4 -5 0 -10
-5 -10 -11z"/>
<path d="M2006 1507 c-14 -11 -15 -15 -3 -31 20 -28 48 -10 32 21 -10 19 -14
21 -29 10z"/>
<path d="M1245 1463 c4 -10 10 -26 13 -37 5 -17 6 -17 17 5 11 20 10 25 -4 36
-23 18 -34 16 -26 -4z"/>
<path d="M1663 1439 c-18 -12 -33 -17 -33 -12 0 10 -80 14 -231 10 l-37 -1 21
-28 c20 -27 22 -28 29 -8 9 24 21 26 38 5 11 -13 14 -13 27 0 18 19 29 19 45
1 11 -12 15 -12 30 1 19 17 38 10 38 -15 0 -13 4 -12 19 7 l19 24 12 -23 c7
-13 13 -43 14 -67 0 -24 3 -43 7 -43 12 0 40 100 37 134 l-3 35 -32 -20z"/>
<path d="M1050 1430 c14 -12 38 -32 54 -45 25 -21 28 -28 22 -60 -7 -34 -6
-36 13 -30 17 5 25 -3 50 -52 l30 -58 1 46 c0 35 -7 55 -28 85 -30 42 -98 109
-110 109 -4 1 -18 6 -32 13 l-25 13 25 -21z"/>
<path d="M1306 1393 c3 -32 11 -66 16 -76 14 -26 1 -34 -18 -11 -15 18 -15 18
-10 1 3 -11 9 -30 12 -43 11 -42 20 -27 37 64 17 87 17 87 -4 105 -35 28 -41
21 -33 -40z"/>
<path d="M1909 1403 c-13 -16 -12 -17 4 -4 9 7 17 15 17 17 0 8 -8 3 -21 -13z"/>
<path d="M1836 1348 c-35 -40 -58 -96 -61 -148 -1 -14 -5 -36 -9 -49 -6 -16
-5 -21 3 -17 6 4 11 14 11 21 0 23 45 119 63 134 13 10 20 11 30 2 11 -9 13 0
13 44 -1 30 -4 55 -8 55 -3 0 -23 -19 -42 -42z"/>
<path d="M1376 1371 c-4 -6 -5 -11 -2 -11 2 0 1 -13 -4 -30 -12 -42 3 -46 16
-5 11 35 3 68 -10 46z"/>
<path d="M1419 1353 c-15 -40 -21 -116 -11 -131 5 -7 25 -15 45 -19 l37 -6 0
52 c0 43 -5 56 -30 83 -23 23 -27 34 -18 40 11 6 11 8 0 8 -7 0 -17 -12 -23
-27z m25 -67 c-21 -15 -30 -14 -19 3 3 6 14 11 23 11 13 0 13 -2 -4 -14z"/>
<path d="M239 1313 c-8 -32 -14 -81 -14 -110 0 -32 -4 -48 -9 -43 -5 5 -10 32
-10 60 -1 27 -5 50 -10 50 -4 0 -7 -42 -4 -93 5 -118 31 -169 107 -211 29 -15
48 -32 45 -38 -4 -6 -9 -6 -13 -1 -6 9 -42 26 -49 23 -2 -1 -11 7 -20 18 -84
96 -102 113 -102 102 0 -30 66 -124 112 -161 27 -21 53 -39 58 -39 4 0 37 19
71 43 45 30 65 50 71 71 4 17 14 34 23 38 21 12 19 28 -3 28 -29 0 -106 54
-148 104 -47 56 -73 117 -73 174 -1 59 -15 52 -32 -15z m26 -205 c12 -29 -3
-20 -17 10 -8 15 -11 45 -9 67 l4 40 8 -50 c4 -27 10 -58 14 -67z m79 9 c21
-32 36 -61 33 -63 -7 -7 -64 77 -78 113 -13 35 -3 24 45 -50z m-47 -117 c16
-23 14 -23 -15 4 -31 29 -62 82 -62 108 0 7 14 -9 30 -37 17 -27 38 -61 47
-75z m60 42 c22 -19 23 -21 6 -13 -14 7 -23 8 -23 2 0 -10 44 -44 70 -54 10
-4 8 -6 -7 -6 -12 -1 -26 -9 -32 -18 -10 -18 -17 -7 -45 72 -6 16 -9 17 -16 5
-8 -12 -10 -11 -10 6 0 12 -3 37 -6 55 l-6 34 21 -30 c11 -16 33 -41 48 -53z
m112 -19 c4 -3 -7 -3 -22 1 l-28 7 17 -28 c13 -24 11 -23 -15 7 -17 19 -31 38
-31 42 0 8 69 -17 79 -29z"/>
<path d="M360 969 c0 -5 5 -7 10 -4 6 3 10 8 10 11 0 2 -4 4 -10 4 -5 0 -10
-5 -10 -11z"/>
<path d="M1476 1353 c-4 -9 -2 -21 4 -27 7 -7 10 -6 10 4 0 7 3 10 7 6 4 -4 6
-36 5 -71 l-2 -65 28 0 c51 0 67 21 65 86 -2 65 -14 84 -39 63 -14 -11 -18
-11 -29 4 -16 22 -41 22 -49 0z"/>
<path d="M1608 1365 c-10 -15 5 -70 20 -72 6 -2 12 4 12 12 0 8 -4 15 -9 15
-5 0 -11 12 -13 28 -2 15 -6 22 -10 17z"/>
<path d="M2730 1325 c0 -57 -43 -145 -96 -198 -21 -21 -65 -51 -98 -67 l-60
-28 34 -9 c30 -8 35 -13 35 -40 1 -37 15 -55 72 -94 l43 -30 45 31 c45 31 106
112 120 160 7 23 6 22 -24 -8 -18 -18 -34 -32 -36 -32 -2 0 6 21 17 48 25 54
37 198 20 228 -9 15 -11 9 -10 -31 1 -57 -10 -115 -22 -115 -4 0 -11 -16 -14
-35 -4 -19 -11 -37 -15 -40 -10 -6 11 70 22 81 19 20 -1 205 -24 220 -5 3 -9
-15 -9 -41z m-19 -138 c-10 -9 -11 -8 -5 6 3 10 9 15 12 12 3 -3 0 -11 -7 -18z
m-28 -54 c-4 -9 -15 -25 -25 -35 -10 -10 -18 -24 -18 -32 0 -7 -6 -19 -14 -25
-32 -26 -9 40 25 74 40 40 40 40 32 18z m32 -41 c-3 -17 -13 -33 -21 -36 -19
-7 -18 6 3 43 21 36 27 33 18 -7z m-105 -32 c0 -5 -7 -10 -16 -10 -8 0 -12 5
-9 10 3 6 10 10 16 10 5 0 9 -4 9 -10z m148 -15 c-6 -14 -15 -25 -20 -25 -5 0
-6 -5 -2 -12 4 -7 3 -8 -4 -4 -7 4 -12 3 -12 -2 0 -5 -7 -9 -15 -9 -10 0 -3
14 22 39 20 21 38 38 40 38 1 0 -3 -11 -9 -25z m-58 -1 c0 -2 -20 -24 -45 -50
-25 -25 -45 -50 -45 -55 0 -20 56 -8 84 18 16 14 27 22 24 17 -2 -5 -11 -24
-18 -41 -14 -32 -30 -44 -30 -22 0 6 -9 9 -20 6 -22 -6 -56 15 -47 30 4 6 -5
15 -18 21 -14 7 -25 20 -25 30 0 10 -6 24 -12 31 -11 11 -10 13 2 9 8 -3 16
-17 18 -31 5 -37 34 -35 74 6 27 27 58 44 58 31z"/>
<path d="M1690 1307 c0 -9 -7 -20 -15 -25 -16 -8 -11 -42 5 -42 9 0 24 70 16
78 -3 3 -6 -2 -6 -11z"/>
<path d="M1356 1254 c-24 -63 12 -95 118 -102 136 -8 210 39 161 104 -14 18
-14 18 -15 -8 0 -37 -22 -56 -76 -64 -94 -14 -164 13 -164 63 0 26 -15 31 -24
7z"/>
<path d="M1221 1164 c0 -11 3 -14 6 -6 3 7 2 16 -1 19 -3 4 -6 -2 -5 -13z"/>
<path d="M721 1100 c-39 -36 -135 -90 -160 -90 -5 0 -22 -5 -36 -12 -25 -11
-26 -15 -20 -62 22 -181 47 -261 108 -350 15 -22 25 -42 22 -44 -3 -3 -12 4
-21 16 -13 18 -18 20 -34 9 -31 -19 -24 -27 38 -42 7 -2 24 -10 36 -19 31 -19
37 -12 30 35 -7 44 8 71 34 62 15 -6 16 -5 2 13 -8 10 -30 35 -48 54 l-33 35
5 -30 c2 -16 7 -50 11 -75 6 -45 5 -45 -10 -18 -9 16 -18 66 -22 118 -7 100
-20 108 -26 15 -2 -41 -4 -28 -5 42 -1 56 2 104 6 107 5 3 17 -22 27 -55 25
-85 126 -216 171 -224 11 -1 18 -7 17 -12 -1 -6 27 -34 63 -62 35 -29 62 -56
59 -61 -5 -9 32 -40 48 -40 4 0 3 9 -3 21 -16 29 -5 67 21 71 17 2 11 9 -30
31 l-52 27 14 -27 c8 -16 18 -39 22 -53 13 -44 -11 -10 -54 76 -22 44 -47 86
-55 94 -23 18 -19 2 9 -49 30 -51 32 -63 6 -30 -17 22 -91 158 -91 167 0 2 26
-22 58 -55 32 -32 62 -59 68 -60 5 -2 9 -8 9 -14 0 -15 123 -88 225 -134 125
-55 257 -122 318 -161 l54 -35 51 34 c29 18 140 77 247 129 188 93 272 147
267 171 -1 6 3 11 8 12 6 0 26 16 44 35 l33 35 -7 -29 c-3 -17 -12 -35 -19
-40 -8 -6 -25 -43 -40 -81 -14 -39 -35 -78 -46 -88 -11 -9 -20 -25 -20 -34 1
-16 2 -16 18 2 9 11 60 56 112 98 98 81 189 177 216 229 9 16 17 28 20 26 2
-2 -5 -56 -16 -119 -11 -63 -20 -116 -20 -118 0 -2 -6 -1 -14 2 -12 5 -25 -18
-26 -45 0 -11 38 5 41 17 1 6 12 26 25 46 50 80 115 264 128 365 l6 51 -47 18
c-67 25 -130 61 -187 108 -46 38 -49 39 -60 21 -6 -10 -17 -48 -24 -84 -38
-184 -155 -367 -307 -482 -74 -56 -204 -126 -309 -168 l-79 -31 -51 21 c-99
42 -270 132 -310 162 -65 50 -145 129 -187 185 -67 90 -127 229 -144 333 -8
48 -21 80 -33 80 -4 -1 -27 -19 -51 -40z m43 -38 c-9 -23 -5 -89 8 -132 16
-54 57 -137 73 -150 8 -7 15 -18 15 -24 0 -26 129 -154 216 -214 11 -7 -1 -2
-25 10 -153 80 -310 317 -311 470 -1 50 -1 52 -14 28 -15 -27 -88 -90 -105
-90 -6 0 -11 -5 -11 -11 0 -5 -4 -8 -9 -5 -4 3 -15 -2 -24 -12 -12 -13 -14
-39 -12 -122 2 -78 0 -98 -7 -80 -6 14 -11 68 -12 120 l-1 94 63 35 c35 20 85
59 110 88 39 43 48 48 50 31 2 -10 0 -27 -4 -36z m1647 -94 l55 -27 -4 -63
c-7 -106 -21 -136 -19 -39 l2 83 -32 17 c-17 10 -43 25 -57 35 -15 9 -32 14
-39 10 -7 -4 -9 -4 -5 0 3 4 -5 20 -18 35 -13 15 -31 36 -39 47 -13 17 -14 14
-15 -36 -1 -71 -20 -150 -55 -223 -30 -63 -131 -171 -211 -226 l-49 -33 56 54
c30 30 62 59 70 64 25 16 106 117 129 163 12 24 19 52 17 62 -3 11 -1 17 3 14
11 -7 23 73 23 152 l0 62 66 -62 c37 -34 91 -74 122 -89z m19 -163 c-3 -60 -8
-102 -12 -93 -4 10 -5 25 -2 33 4 8 3 31 0 50 l-7 35 -59 -75 c-61 -76 -188
-205 -203 -205 -4 0 32 39 81 88 89 88 161 183 188 249 8 19 16 34 17 32 1 -2
0 -53 -3 -114z m-303 -227 c-3 -8 -6 -5 -6 6 -1 11 2 17 5 13 3 -3 4 -12 1
-19z m-1146 -5 c13 -17 13 -17 -6 -3 -11 8 -22 16 -24 17 -2 2 0 3 6 3 6 0 17
-8 24 -17z m1049 12 c0 -2 -13 -11 -30 -20 -38 -19 -40 -11 -2 9 31 17 32 18
32 11z"/>
<path d="M2448 1033 c7 -3 16 -2 19 1 4 3 -2 6 -13 5 -11 0 -14 -3 -6 -6z"/>
<path d="M1525 953 c-15 -14 -22 -15 -52 -4 -47 17 -53 7 -9 -14 31 -15 39
-15 66 -4 31 14 37 24 21 34 -5 3 -17 -2 -26 -12z"/>
<path d="M440 895 c-31 -33 -116 -75 -152 -75 -15 0 -28 -4 -28 -8 0 -18 135
-136 205 -179 43 -27 115 -63 115 -58 0 3 -9 18 -20 33 -21 30 -65 162 -76
230 l-7 43 -22 -33 c-14 -20 -20 -37 -14 -42 5 -6 9 -18 9 -28 0 -10 14 -45
30 -78 32 -64 36 -75 20 -65 -17 11 -60 103 -60 129 0 14 -5 28 -10 31 -13 8
-70 -4 -70 -14 0 -4 23 -31 50 -60 28 -29 50 -58 50 -64 0 -11 -38 22 -100 88
l-38 39 30 15 c34 16 128 99 128 112 0 16 -16 10 -40 -16z"/>
<path d="M1885 887 c-27 -18 -70 -39 -94 -47 -39 -13 -44 -12 -53 3 -8 15 -12
16 -38 2 -16 -8 -37 -15 -47 -16 -14 0 -13 -2 5 -9 28 -12 28 -22 -4 -59 -14
-17 -24 -31 -21 -31 21 0 241 127 290 167 41 33 20 27 -38 -10z"/>
<path d="M2531 883 c3 -68 -78 -267 -131 -321 -17 -19 -29 -36 -27 -39 7 -7
47 16 47 26 0 5 48 42 107 82 59 39 112 77 119 83 6 6 26 25 46 42 53 47 54
52 6 64 -46 12 -148 69 -148 82 0 4 -5 8 -10 8 -6 0 -10 -12 -9 -27z m35 -33
c5 -5 32 -22 61 -37 l51 -29 -45 -49 c-44 -49 -44 -49 -24 -12 12 21 21 43 21
48 0 12 -34 43 -65 60 -16 9 -14 5 6 -17 33 -37 32 -69 -5 -122 -37 -53 -55
-55 -20 -3 28 43 38 108 17 104 -7 -2 -14 3 -14 10 -1 6 -3 22 -4 35 -2 23 5
28 21 12z"/>
<path d="M268 864 c3 -18 8 -22 17 -14 6 5 15 7 18 3 4 -3 7 -4 7 -1 0 3 -11
13 -23 21 -23 15 -24 15 -19 -9z"/>
<path d="M2730 882 c0 -7 -7 -12 -16 -12 -22 0 -12 -24 12 -27 10 -2 13 0 6 3
-10 5 -10 9 -1 20 7 8 9 17 5 21 -3 3 -6 1 -6 -5z"/>
<path d="M1147 849 c7 -7 15 -10 18 -7 3 3 -2 9 -12 12 -14 6 -15 5 -6 -5z"/>
<path d="M1604 814 c-18 -14 -18 -15 4 -4 12 6 22 13 22 15 0 8 -5 6 -26 -11z"/>
<path d="M1396 802 c-3 -5 1 -15 9 -22 21 -17 27 -9 10 13 -7 10 -16 14 -19 9z"/>
<path d="M2318 654 c-31 -35 -34 -44 -17 -44 7 0 17 -8 24 -17 11 -15 14 -12
20 29 10 64 5 70 -27 32z"/>
<path d="M460 600 c8 -5 20 -10 25 -10 6 0 3 5 -5 10 -8 5 -19 10 -25 10 -5 0
-3 -5 5 -10z"/>
<path d="M2038 550 c-26 -24 -31 -34 -22 -47 15 -24 31 -27 37 -6 3 10 10 33
15 51 6 17 9 32 7 32 -2 0 -19 -14 -37 -30z"/>
<path d="M765 560 c3 -5 8 -10 11 -10 2 0 4 5 4 10 0 6 -5 10 -11 10 -5 0 -7
-4 -4 -10z"/>
<path d="M1227 399 c7 -7 15 -10 18 -7 3 3 -2 9 -12 12 -14 6 -15 5 -6 -5z"/>
<path d="M1475 260 c3 -5 16 -10 28 -9 21 0 21 1 2 9 -28 12 -37 12 -30 0z"/>
</g>
</svg>
